<svg xmlns="http://www.w3.org/2000/svg" width="1706.667" height="1706.667" viewBox="0 0 1280 1280" preserveAspectRatio="xMidYMid meet" xmlns:v="https://vecta.io/nano"><path d="M609.5.6C514.3 6.2 433 27.7 352 68.5 175.6 157.5 50.2 322.6 12.1 516 3.6 559 .6 591.7.6 640c0 40.2 1.1 57 6 91 22.3 156.2 101.2 297.7 222.8 399.7 95 79.7 211.7 130.2 334.6 144.7 28.1 3.3 41.6 4.1 76 4.1 35.9 0 48.5-.7 79.5-4.6 211.9-26.1 397.5-157.6 493.3-349.4 30.6-61.3 50.8-126.1 60.6-194.5 4.9-33.9 6-50.8 6-90.5 0-39.8-1.2-58.3-6-91.5C1233.3 268.2 1011.6 46.5 731 6.5 701.2 2.3 682.2.9 648 .6c-17.9-.2-35.2-.2-38.5 0zm72.3 71.1c32.2 33.9 46.6 50.1 65.9 73.9 42.7 53 80.2 110.8 107.5 166.4 8.2 16.6 20.8 44.3 20.3 44.8-.9.9-25.9 8.1-44.5 12.7-29.3 7.4-51.3 11.7-84 16.5-15 2.2-35.8 4.2-67.7 6.5l-8.3.5V228l1.2-165c.7 0 5 3.9 9.6 8.7zM609 230v163.1l-7.2-.6L580 391c-30-2.2-62.4-6.7-94.5-13.1-26.4-5.3-74.5-17.9-74.5-19.5 0-.3 3.4-8.2 7.6-17.7 35.6-80.2 85-156.8 147.3-228.4C580.4 95.7 607.1 67 608.2 67c.4 0 .8 73.4.8 163zM513.4 77.2c-.5.7-4.2 5.3-8.4 10.3-59.4 70.2-111.4 153.3-145.5 232.6-4 9.4-7.6 17.3-7.9 17.6-1.4 1.4-58.5-24.9-82.8-38.2C240.9 284.2 205 262 205 260s49.6-50.8 62.5-61.4c64-53 130.5-89 206.9-112.1 6.9-2 37.8-10.3 39.4-10.5.2 0 0 .6-.4 1.2zM786 81.1c90.7 24.1 169.9 66.8 239.4 128.8 13.3 12 46.8 45.8 48.7 49.2.8 1.6-.5 2.8-10.5 9.3-24.6 16-55.9 33.6-83.1 46.7-18.3 8.8-43.2 19.9-44.9 19.9-.6 0-4-6.6-7.6-14.8-32.9-75.2-80-150.9-137.4-220.6l-15.4-18.7c-1.3-1.6-2-2.9-1.5-2.9.4 0 6 1.4 12.3 3.1zM206.7 335.9c33.3 20 66 36.6 102.4 52.1l20.2 9c.4.4-.3 4.2-1.7 8.6-10.3 33.2-20.1 74.1-25.5 107.4-4.3 26-9.1 70.5-9.1 83.8 0 3.3-.3 7.4-.6 9.1l-.7 3.1-114.1-.2-114.1-.3.3-6c2.3-48.2 13.8-104.5 31.9-156 15.4-43.7 42.2-96.7 65.9-130.2l4.4-6.2 13 8.4c7.1 4.7 19.6 12.5 27.7 17.4zm915.6-13.6c32.9 50.1 57 102.7 73.7 160.9 9.3 32.6 17.3 77.2 19.5 108.8.3 4.7.8 10.4 1.1 12.7l.5 4.3h-110.4-110.4l-.7-12.8c-3.3-58.8-15-123.9-32.7-181.7l-5.3-18.8c-.1-1.4 4-3.5 18.3-9.7 38.9-16.9 79.9-38.7 116.2-61.8l19.4-12.5c1.1-.9 2.3-1.3 2.7-1.1.5.3 4.1 5.5 8.1 11.7zM900.1 422.5c16.4 51.7 26.5 101.5 31.3 154 .8 8.8 1.6 19.6 1.8 24l.3 8-131.2.3-131.3.2v-76.8-76.8l19.8-1.2c63.5-3.8 134.7-16.5 191.7-34.1 7.2-2.2 13.6-3.9 14.4-3.8.7.1 2.2 2.9 3.2 6.2zm-494.9-.1c59.1 17.2 122.5 28.1 184.1 31.8l19.7 1.2v76.8V609H482 355v-4.4c0-7.3 2.9-40 5.1-56.6 4.1-31.3 10.9-65.6 19-95.6 4.7-17.6 9.8-34.4 10.4-34.4.2 0 7.3 2 15.7 4.4zM292.4 673.2c.3 1.3.6 5 .6 8.3 0 8.4 2.6 36.9 5 56 6.2 48 18 100.3 33 145.8 2.7 8.3 4.6 15.5 4.2 15.8-.4.4-6.3 3-13.2 5.7-41.1 16.4-87.7 40.3-130.3 67-9.3 5.7-17.2 10.1-17.6 9.6-2.2-2.4-15.7-22.2-21.9-32.1-40-63.3-66.8-131.7-80.1-204.3-3.3-17.6-6.6-43-7.6-57-.3-4.7-.8-10.4-1.1-12.8l-.5-4.2h114.4 114.5l.6 2.2zM609 756.9v85.9l-9.7.6c-60.2 3.9-99.5 9.4-150.6 21.1-14.1 3.3-51.4 13.2-52.8 14.1-.7.4-8.4-22.8-13.8-41.6-14.1-49.4-23.5-103.7-26.7-155.3l-.7-10.7h127.2H609v85.9zm324.5-78.7c-2.2 28.9-2.9 36.5-5.1 53.8-4.4 33.8-11.5 68.7-20.5 101-5.2 18.2-14.8 48-15.5 48-.2 0-5.5-1.5-11.7-3.4-35.4-10.7-79.2-20.4-117.7-26-28-4.1-45.5-5.8-82.2-8.2l-9.8-.6v-85.9V671h131.5 131.6l-.6 7.2zm283.1-3.5c-.3 2.1-.8 7.8-1.1 12.8-5.4 79-32.4 166.4-73.7 238.5-10.3 17.8-31.3 50.3-35.9 55.4-.4.5-8.3-3.8-17.6-9.6-41.1-25.7-91.6-51.8-127.5-65.9-4.9-1.9-8.8-3.9-8.8-4.6s.9-3.5 2-6.4c3.5-8.9 15-47.7 19.6-66.4 11.6-46.9 18.8-93 21.6-138.3l1.2-19.2h110.4 110.4l-.6 3.7zM609 1059.2l-.1 153.3-11.1-11.5c-70.1-72.7-131.3-160.5-170.8-244.9-4.4-9.6-7.9-17.9-7.7-18.5.9-2.1 45-13.2 75.7-19 36-6.8 78.8-11.8 105.8-12.4l8.2-.2v153.2zm105.5-150.6c48.1 4.7 100.5 14.6 142 27l10.8 3.1c.9.3 1.7 1 1.7 1.7 0 2.3-27.3 55.9-37.8 74.1-31.8 55.4-68.1 105.5-114 157.3-20.6 23.3-42.1 45.2-44.3 45.2-1.9 0-1.9-3.8-1.9-155.6V905.7l14.3.7c7.8.4 21 1.4 29.2 2.2zm-339 83.9c33.6 69.3 75.1 133.1 127.5 196 7.1 8.5 12.7 15.5 12.4 15.5-1.6 0-23.7-5.6-35.2-8.9-95.8-27.8-180-77.9-251.6-150l-13.9-13.9 8.4-5.5c32.7-21.2 86-48.5 126.9-65l8.5-3.4 2.4 5.1 14.6 30.1zm571.2-24.8c31.5 13.4 82.8 40.3 110.2 58l8.4 5.5-14.4 14.5c-63.6 64-138.4 111.2-222.3 140.2-19.7 6.8-53.6 16.6-53.6 15.4 0-.2 5.3-6.8 11.8-14.6 53.7-64.3 99.7-135.9 132.2-205.6 5.2-11.1 10-20.1 10.6-20.1.7 0 8.4 3 17.1 6.7z" fill="#444"/></svg>